<?xml version="1.0" encoding="utf-8"?>
<!-- Uploaded to: SVG Repo, www.svgrepo.com, Generator: SVG Repo Mixer Tools -->
<svg xmlns="http://www.w3.org/2000/svg" xmlns:xlink="http://www.w3.org/1999/xlink" version="1.1" id="hightemperature"  viewBox="0 0 175.3136 223.3115" enable-background="new 0 0 175.3136 223.3115" xml:space="preserve" width="512" height="512">
<g>
	<path fill="#FFFFFF" d="M98.9282,27.3115c2.209,0,4,1.791,4,4s-1.791,4-4,4h-8v20h20V21.3154c0-5.5156-4.4863-10.0039-10-10.0039   s-10,4.4883-10,10.0039v5.9961H98.9282z"/>
	<path fill="#5CB0FF" d="M113.7192,133.8505c-1.6621-0.5273-2.791-2.0684-2.791-3.8125V63.331h-20v19.9805h8c2.209,0,4,1.791,4,4   s-1.791,4-4,4h-8v20h8c2.209,0,4,1.791,4,4s-1.791,4-4,4h-8v10.7266c0,1.7441-1.1289,3.2852-2.791,3.8125   c-17.4707,5.543-29.209,21.5156-29.209,39.7461c0,23.002,18.8418,41.7148,42,41.7148s42-18.7129,42-41.7148   C142.9282,155.3661,131.1899,139.3935,113.7192,133.8505z"/>
	<path fill="#1C71DA" d="M118.9282,127.2001V63.3115V59.331V21.3154c0-9.9277-8.0742-18.0039-18-18.0039s-18,8.0762-18,18.0039   V59.331v3.9805v63.8887c-19.2578,7.3594-32,25.6504-32,46.3965c0,27.4121,22.4297,49.7148,50,49.7148s50-22.3027,50-49.7148   C150.9282,152.8505,138.186,134.5595,118.9282,127.2001z M100.9282,11.3115c5.5137,0,10,4.4883,10,10.0039v33.9961h-20v-20h8   c2.209,0,4-1.791,4-4s-1.791-4-4-4h-8v-5.9961C90.9282,15.7997,95.4145,11.3115,100.9282,11.3115z M100.9282,215.3115   c-23.1582,0-42-18.7129-42-41.7148c0-18.2305,11.7383-34.2031,29.209-39.7461c1.6621-0.5273,2.791-2.0684,2.791-3.8125v-10.7266h8   c2.209,0,4-1.791,4-4s-1.791-4-4-4h-8v-20h8c2.209,0,4-1.791,4-4s-1.791-4-4-4h-8V63.331h20v66.707   c0,1.7441,1.1289,3.2852,2.791,3.8125c17.4707,5.543,29.209,21.5156,29.209,39.7461   C142.9282,196.5986,124.0864,215.3115,100.9282,215.3115z"/>
</g>
<path fill="#FF5D5D" d="M155.3136,22.1436c-1.0239,0-2.0474-0.3906-2.8286-1.1714c-1.562-1.5625-1.562-4.0947,0-5.6572  l14.1421-14.1421c1.5625-1.5615,4.0947-1.5615,5.6572,0c1.562,1.5625,1.562,4.0947,0,5.6572l-14.1421,14.1421  C157.361,21.753,156.3375,22.1436,155.3136,22.1436z"/>
<path fill="#FF5D5D" d="M169.4557,22.1422c-1.0239,0-2.0474-0.3906-2.8286-1.1714L152.485,6.8282  c-1.562-1.5625-1.562-4.0952,0-5.6572c1.5635-1.5615,4.0957-1.561,5.6572,0l14.1421,14.1426c1.562,1.5625,1.562,4.0952,0,5.6572  C171.5031,21.7515,170.4791,22.1422,169.4557,22.1422z"/>
<path fill="#00D40B" d="M161.3136,106.1436c-7.7197,0-14-6.2803-14-14s6.2803-14,14-14s14,6.2803,14,14  S169.0333,106.1436,161.3136,106.1436z M161.3136,86.1436c-3.3086,0-6,2.6914-6,6s2.6914,6,6,6s6-2.6914,6-6  S164.6222,86.1436,161.3136,86.1436z"/>
<path fill="#FFC504" d="M15.3136,185.4571c-1.0239,0-2.0474-0.3906-2.8286-1.1714L1.1715,172.9722  c-1.562-1.5625-1.562-4.0947,0-5.6572l11.3135-11.3135c1.5625-1.5615,4.0947-1.5615,5.6572,0l11.3135,11.3135  c1.562,1.5625,1.562,4.0947,0,5.6572l-11.3135,11.3135C17.361,185.0665,16.3375,185.4571,15.3136,185.4571z M9.6569,170.1436  l5.6567,5.6567l5.6567-5.6567l-5.6567-5.6567L9.6569,170.1436z"/>
</svg>